<?xml version="1.0" encoding="UTF-8"?>
<svg version="1.1" xmlns="http://www.w3.org/2000/svg" width="626" height="626">
<path d="M0 0 C1.34762519 0.00187211 2.69525107 0.00329225 4.0428772 0.00428772 C7.53782126 0.00805059 11.03272173 0.01782515 14.52764893 0.0289917 C18.11478079 0.03934225 21.70191991 0.04381413 25.2890625 0.04882812 C32.28908 0.05945508 39.28906836 0.07645347 46.2890625 0.09765625 C44.48543137 4.08605535 42.36749162 5.78373023 38.7890625 8.34765625 C34.87971929 11.17916528 31.06253383 14.07072692 27.3515625 17.16015625 C14.14629976 27.76245855 1.2258665 33.8429872 -15.72607422 34.38720703 C-35.7182308 35.05782758 -53.06703672 39.57281157 -67.7109375 54.09765625 C-79.74350447 68.39061056 -84.07082565 84.21461079 -82.96533203 102.60253906 C-81.28419341 119.09124996 -71.72985993 133.87885762 -59.0859375 144.28515625 C-47.00665595 152.87220986 -32.48834766 156.03036338 -17.9465332 156.28564453 C2.12719681 156.73052084 15.76069007 163.68140449 31.20996094 176.10424805 C35.20769324 179.31055394 39.29382776 182.17440323 43.71484375 184.78125 C45.68462041 186.42843297 45.77437557 187.63998707 46.2890625 190.09765625 C45.15871582 189.93628174 44.02836914 189.77490723 42.86376953 189.60864258 C36.10589844 188.86254141 29.32560692 188.94470018 22.53588486 188.92899132 C20.04419697 188.9217306 17.55269544 188.90599376 15.06106567 188.88764954 C7.98214312 188.83563473 0.90332823 188.78729591 -6.17578125 188.77172852 C-10.52414863 188.76154593 -14.87203522 188.73197137 -19.22021103 188.69040871 C-20.86009938 188.67824431 -22.50005603 188.67295024 -24.13998795 188.67520714 C-37.94497008 188.68952902 -50.68117587 186.9271562 -63.0234375 180.22265625 C-63.69020508 179.87243408 -64.35697266 179.52221191 -65.04394531 179.16137695 C-66.94180833 178.15563835 -68.82638231 177.12803404 -70.7109375 176.09765625 C-71.63777344 175.61425781 -72.56460938 175.13085938 -73.51953125 174.6328125 C-92.58351408 164.10949398 -106.0747937 145.48758337 -112.7109375 125.09765625 C-115.37880318 115.2738558 -116.22723741 105.87775793 -116.1484375 95.72265625 C-116.14572845 95.04544525 -116.14301941 94.36823425 -116.14022827 93.67050171 C-116.07721662 83.27051245 -115.33302872 73.90351504 -111.7109375 64.09765625 C-111.3603125 63.06769531 -111.0096875 62.03773438 -110.6484375 60.9765625 C-106.70664209 50.45142129 -100.25011022 40.41587682 -92.7109375 32.09765625 C-92.0509375 32.09765625 -91.3909375 32.09765625 -90.7109375 32.09765625 C-90.7109375 31.43765625 -90.7109375 30.77765625 -90.7109375 30.09765625 C-65.01216258 6.6073698 -33.99253759 -0.13901686 0 0 Z " fill="#111111" transform="translate(318.7109375,215.90234375)"/>
<path d="M0 0 C1.26085419 0.0001133 1.26085419 0.0001133 2.54718018 0.00022888 C3.89426056 0.00797081 3.89426056 0.00797081 5.26855469 0.01586914 C6.19512878 0.01728409 7.12170288 0.01869904 8.07635498 0.02015686 C11.03107961 0.02574715 13.98572802 0.03829789 16.94042969 0.05102539 C18.94563693 0.05604165 20.95084535 0.06060433 22.95605469 0.06469727 C27.86754232 0.07571341 32.77897309 0.09297139 37.69042969 0.11352539 C36.82704128 4.77798728 34.00345289 6.89423159 30.57324219 9.92211914 C23.71609407 16.14923711 17.09920143 22.59324381 10.55761719 29.14868164 C10.0722776 29.63449078 9.58693802 30.12029991 9.08689117 30.62083054 C6.0855452 33.62554244 3.08793917 36.63395929 0.09161377 39.64367676 C-2.47253136 42.21817897 -5.03961747 44.78974526 -7.60644531 47.36157227 C-11.35556396 51.1185649 -15.1031641 54.87706131 -18.84912109 58.63720703 C-19.63936172 59.43014664 -20.42960236 60.22308624 -21.24378967 61.04005432 C-22.83764179 62.63983999 -24.43040322 64.24071234 -26.02270508 65.84204102 C-28.3262932 68.1301358 -30.65531457 70.38916486 -32.99263 72.64268494 C-35.41351363 74.98288899 -37.81817958 77.33948414 -40.22241211 79.69677734 C-41.49255162 80.93655495 -42.76799563 82.17092051 -44.04858398 83.39990234 C-45.90638402 85.18494073 -47.74412598 86.98866287 -49.57910156 88.79711914 C-50.44146172 89.61302773 -50.44146172 89.61302773 -51.32124329 90.44541931 C-54.0412328 93.16305831 -55.25781124 94.62292556 -55.66772461 98.50830078 C-55.54953369 99.3680249 -55.43134277 100.22774902 -55.30957031 101.11352539 C-54.71265381 101.38447021 -54.1157373 101.65541504 -53.50073242 101.93457031 C-51.33862117 103.09789457 -49.95863046 104.23278993 -48.25097656 105.97680664 C-47.69990234 106.53432617 -47.14882813 107.0918457 -46.58105469 107.66625977 C-45.73510742 108.53734375 -45.73510742 108.53734375 -44.87207031 109.42602539 C-44.31197266 109.99514648 -43.751875 110.56426758 -43.17480469 111.15063477 C-42.07020349 112.27328079 -40.96745921 113.39775732 -39.86669922 114.52416992 C-37.69801965 116.7377328 -35.50460025 118.92613034 -33.30957031 121.11352539 C-28.30957031 126.11352539 -28.30957031 126.11352539 -25.93457031 128.55102539 C-23.91949867 130.51811914 -21.90435406 132.31502231 -19.74707031 134.11352539 C-16.86527844 136.54095267 -14.64707205 139.15268986 -12.30957031 142.11352539 C-11.54644531 142.71165039 -10.78332031 143.30977539 -9.99707031 143.92602539 C-7.63750751 145.84659976 -5.88985531 147.68330124 -3.93457031 149.98852539 C-1.07737138 153.35436853 1.93918602 156.1597996 5.40527344 158.88696289 C5.829375 159.29172852 6.25347656 159.69649414 6.69042969 160.11352539 C6.69042969 160.77352539 6.69042969 161.43352539 6.69042969 162.11352539 C7.52574219 162.45383789 7.52574219 162.45383789 8.37792969 162.80102539 C11.35202556 164.48902575 13.41051834 166.58029056 15.69042969 169.11352539 C15.69042969 169.77352539 15.69042969 170.43352539 15.69042969 171.11352539 C16.68042969 171.44352539 17.67042969 171.77352539 18.69042969 172.11352539 C18.69042969 172.77352539 18.69042969 173.43352539 18.69042969 174.11352539 C19.68042969 174.44352539 20.67042969 174.77352539 21.69042969 175.11352539 C21.69042969 175.77352539 21.69042969 176.43352539 21.69042969 177.11352539 C22.22152344 177.32106445 22.75261719 177.52860352 23.29980469 177.74243164 C26.68764245 179.68545624 29.19960955 182.29381279 31.94042969 185.05102539 C32.771875 185.85830078 32.771875 185.85830078 33.62011719 186.68188477 C35.03926207 188.09928194 36.37184472 189.60212848 37.69042969 191.11352539 C37.69042969 192.10352539 37.69042969 193.09352539 37.69042969 194.11352539 C31.68934836 194.18330541 25.69163358 194.16472516 19.69042969 194.11352539 C18.59359863 194.10772461 17.49676758 194.10192383 16.36669922 194.09594727 C12.86945567 194.06654631 9.37448814 194.00010295 5.87792969 193.92602539 C4.7514502 193.92030518 3.6249707 193.91458496 2.46435547 193.90869141 C-5.56430038 193.68968394 -5.56430038 193.68968394 -9.27050781 190.82446289 C-9.94339844 189.92985352 -10.61628906 189.03524414 -11.30957031 188.11352539 C-13.69160222 186.01173253 -16.09996232 183.94488752 -18.51660156 181.88305664 C-19.10828125 181.29911133 -19.69996094 180.71516602 -20.30957031 180.11352539 C-20.30957031 179.45352539 -20.30957031 178.79352539 -20.30957031 178.11352539 C-20.88166733 177.86707275 -21.45376434 177.62062012 -22.04319763 177.36669922 C-24.68408255 175.90644165 -26.44830923 174.20771202 -28.5715332 172.06274414 C-29.40241959 171.228479 -30.23330597 170.39421387 -31.08937073 169.53466797 C-31.97801315 168.63256592 -32.86665558 167.73046387 -33.78222656 166.80102539 C-35.18689356 165.38841191 -36.59156307 163.97580091 -37.99638271 162.56333923 C-39.96030083 160.58630107 -41.91964071 158.60475603 -43.87896729 156.62316895 C-47.31037064 153.15375266 -50.74660761 149.68913914 -54.18638611 146.22802734 C-56.016591 144.38555145 -57.8441163 142.54040925 -59.66871643 140.69238281 C-60.91031776 139.44098511 -60.91031776 139.44098511 -62.17700195 138.16430664 C-62.90440079 137.42865479 -63.63179962 136.69300293 -64.38124084 135.93505859 C-66.37855979 133.9461117 -66.37855979 133.9461117 -69.30957031 132.11352539 C-69.30957031 131.45352539 -69.30957031 130.79352539 -69.30957031 130.11352539 C-69.94894531 129.84540039 -70.58832031 129.57727539 -71.24707031 129.30102539 C-73.30957031 128.11352539 -73.30957031 128.11352539 -74.30957031 125.11352539 C-75.64014421 124.44136817 -76.97415046 123.77600259 -78.30957031 123.11352539 C-81.80241768 120.01869472 -85.08450581 116.71020518 -88.38305664 113.41064453 C-89.99179741 111.80628394 -91.6158503 110.21860218 -93.24121094 108.63110352 C-94.2688819 107.60929998 -95.29560733 106.58654444 -96.32128906 105.56274414 C-97.25416748 104.6380835 -98.1870459 103.71342285 -99.14819336 102.76074219 C-101.45191964 99.93917842 -102.10090696 98.69737731 -102.30957031 95.11352539 C-100.97575855 93.03304672 -100.97575855 93.03304672 -98.88813782 90.95037842 C-98.10436264 90.15401978 -97.32058746 89.35766113 -96.51306152 88.53717041 C-95.63678101 87.67774841 -94.76050049 86.81832642 -93.85766602 85.93286133 C-92.94740158 85.01690186 -92.03713715 84.10094238 -91.09928894 83.15722656 C-88.60024934 80.64363158 -86.08283755 78.14920872 -83.56135583 75.65815258 C-80.9268293 73.049958 -78.30811272 70.42597879 -75.68730164 67.80401611 C-71.28289689 63.40242212 -66.86702212 59.01260803 -62.44360352 54.63012695 C-57.3286726 49.56235907 -52.22957707 44.47909537 -47.13927776 39.38659453 C-42.24451477 34.49000049 -37.34123198 29.60203692 -32.43312645 24.71881866 C-30.34355366 22.63984044 -28.25655043 20.55833183 -26.17147255 18.47484589 C-23.25939451 15.56634085 -20.33473643 12.67081783 -17.40844727 9.77661133 C-16.10920822 8.47533295 -16.10920822 8.47533295 -14.78372192 7.14776611 C-13.58691048 5.97014709 -13.58691048 5.97014709 -12.36592102 4.76873779 C-11.67512105 4.08296535 -10.98432108 3.39719292 -10.27258778 2.6906395 C-7.04990882 0.10149674 -4.0177681 -0.01210171 0 0 Z " fill="#202021" transform="translate(385.3095703125,215.886474609375)"/>
<path d="M0 0 C0.99 0.99 1.98 1.98 3 3 C2.00766026 4.19390875 1.00551846 5.37966913 0 6.5625 C-0.556875 7.22378906 -1.11375 7.88507813 -1.6875 8.56640625 C-3.56619046 10.54347408 -5.43302315 12.26570727 -7.5 14.03125 C-13.293237 19.02979783 -18.61556393 24.50868211 -24 29.9375 C-25.07137887 31.01390654 -26.14299182 32.09008014 -27.21484375 33.16601562 C-29.81259638 35.77466745 -32.40717962 38.38644471 -35 41 C-35.66 40.67 -36.32 40.34 -37 40 C-37.375 37.8125 -37.375 37.8125 -37 35 C-34.1875 32.375 -34.1875 32.375 -31 30 C-30.4225 29.4225 -29.845 28.845 -29.25 28.25 C-27.68630449 26.68630449 -25.97010432 25.98505216 -24 25 C-23.31513275 23.67592331 -22.65129797 22.34090759 -22 21 C-21.02418241 19.64886795 -20.02970259 18.31053056 -19 17 C-19 17.66 -19 18.32 -19 19 C-18.34 19 -17.68 19 -17 19 C-17 17.68 -17 16.36 -17 15 C-16.38125 14.7525 -15.7625 14.505 -15.125 14.25 C-12.5927804 12.76045906 -12.19281342 11.62418952 -11 9 C-8.89184922 6.41272404 -7.28186266 5.56583839 -4 5 C-4 4.01 -4 3.02 -4 2 C-2.68 1.34 -1.36 0.68 0 0 Z " fill="#464648" transform="translate(365,270)"/>
<path d="M0 0 C0.85665756 -0.00095673 1.71331512 -0.00191345 2.59593201 -0.00289917 C4.40567091 -0.00357936 6.21541227 -0.00173626 8.02514648 0.00244141 C10.80132497 0.00779847 13.57734214 0.00248763 16.35351562 -0.00390625 C18.11067744 -0.00324557 19.86783916 -0.00196461 21.625 0 C22.87501549 -0.00303635 22.87501549 -0.00303635 24.15028381 -0.00613403 C30.01616644 0.01784885 30.01616644 0.01784885 32.24609375 1.1328125 C31.91609375 2.1228125 31.58609375 3.1128125 31.24609375 4.1328125 C13.92109375 3.6378125 13.92109375 3.6378125 -3.75390625 3.1328125 C-3.75390625 3.7928125 -3.75390625 4.4528125 -3.75390625 5.1328125 C-4.41390625 5.1328125 -5.07390625 5.1328125 -5.75390625 5.1328125 C-5.75390625 4.4728125 -5.75390625 3.8128125 -5.75390625 3.1328125 C-12.41865318 8.58747968 -18.06872337 14.6903819 -23.75390625 21.1328125 C-24.41390625 20.1428125 -25.07390625 19.1528125 -25.75390625 18.1328125 C-25.09390625 17.4728125 -24.43390625 16.8128125 -23.75390625 16.1328125 C-23.42390625 16.1328125 -23.09390625 16.1328125 -22.75390625 16.1328125 C-22.50640625 15.5965625 -22.25890625 15.0603125 -22.00390625 14.5078125 C-16.47726953 4.00720273 -11.79451602 -0.02871919 0 0 Z " fill="#0B0B0B" transform="translate(386.75390625,217.8671875)"/>
<path d="M0 0 C22.44 0 44.88 0 68 0 C67 2 67 2 64 4 C61.58918762 4.20254517 61.58918762 4.20254517 58.70239258 4.13525391 C57.62149857 4.11508209 56.54060455 4.09491028 55.42695618 4.0741272 C54.26125595 4.04193085 53.09555573 4.0097345 51.89453125 3.9765625 C50.10301888 3.93902359 50.10301888 3.93902359 48.27531433 3.90072632 C44.45409119 3.81844068 40.63337824 3.72188287 36.8125 3.625 C34.22463033 3.56676929 31.63673963 3.50946584 29.04882812 3.453125 C22.69893524 3.31284896 16.34940326 3.1608483 10 3 C10 2.34 10 1.68 10 1 C6.7 1 3.4 1 0 1 C0 0.67 0 0.34 0 0 Z M59 1 C59.66 1.66 60.32 2.32 61 3 C61 2.34 61 1.68 61 1 C60.34 1 59.68 1 59 1 Z " fill="#0A0A0A" transform="translate(294,218)"/>
<path d="M0 0 C0.33 0.66 0.66 1.32 1 2 C2.33036968 2.67256132 3.6640721 3.33854791 5 4 C6.56811523 5.34106445 6.56811523 5.34106445 8.05859375 6.86328125 C8.88520508 7.69956055 8.88520508 7.69956055 9.72851562 8.55273438 C10.29248047 9.13345703 10.85644531 9.71417969 11.4375 10.3125 C11.99759766 10.88162109 12.55769531 11.45074219 13.13476562 12.03710938 C14.23613825 13.15647409 15.33563968 14.27768353 16.43310547 15.40087891 C18.60522543 17.6176732 20.80133737 19.80955667 23 22 C21.02 22.99 21.02 22.99 19 24 C18.67 23.01 18.34 22.02 18 21 C16.9275 20.855625 15.855 20.71125 14.75 20.5625 C11 20 11 20 7 19 C6.67 16.03 6.34 13.06 6 10 C4.35 10.66 2.7 11.32 1 12 C-1.44576827 8.33134759 -1.23607254 6.32799657 -1 2 C-0.67 1.34 -0.34 0.68 0 0 Z " fill="#3D3D3F" transform="translate(329,315)"/>
<path d="M0 0 C1.85954227 3.41617268 2.98781602 6.93177492 4.1875 10.625 C6.50940174 17.27092234 9.61956513 22.52130048 14 28 C13.67 28.66 13.34 29.32 13 30 C12.34 29.34 11.68 28.68 11 28 C10.34 28.66 9.68 29.32 9 30 C6 25.25 6 25.25 6 23 C5.01 22.67 4.02 22.34 3 22 C2.3125 19.9375 2.3125 19.9375 2 18 C1.01 18.66 0.02 19.32 -1 20 C-2.84014432 18.15985568 -2.17355864 15.2801214 -2.1875 12.8125 C-2.20167969 11.68457031 -2.21585938 10.55664062 -2.23046875 9.39453125 C-1.99598481 5.94086099 -1.23587122 3.21912702 0 0 Z " fill="#434343" transform="translate(235,321)"/>
<path d="M0 0 C0.66 0 1.32 0 2 0 C2.6875 2.8125 2.6875 2.8125 3 6 C1.5625 7.875 1.5625 7.875 0 9 C0.99 8.67 1.98 8.34 3 8 C7.33892236 12.11055802 9.75120985 15.17231265 11 21 C12.32 21 13.64 21 15 21 C15.33 21.99 15.66 22.98 16 24 C16.66 23.34 17.32 22.68 18 22 C18 23.98 18 25.96 18 28 C14.13671373 26.4152642 11.71123077 23.94043113 8.796875 20.9921875 C8.3142218 20.50670441 7.8315686 20.02122131 7.33428955 19.52102661 C5.80141438 17.97700134 4.27565996 16.42615176 2.75 14.875 C1.70879639 13.82375991 0.66713459 12.77297343 -0.375 11.72265625 C-2.92199464 9.15366996 -5.46265177 6.57851839 -8 4 C-7.38125 3.87625 -6.7625 3.7525 -6.125 3.625 C-3.80879168 3.12802644 -3.80879168 3.12802644 -2 1 C-1.67 1.33 -1.34 1.66 -1 2 C-0.67 1.34 -0.34 0.68 0 0 Z M6 10 C8 11 8 11 8 11 Z " fill="#232323" transform="translate(293,313)"/>
<path d="M0 0 C3.76630271 1.25543424 4.59441394 2.88688863 7 6 C9.4155178 8.53939051 11.79899388 10.84311718 14.5625 13 C17.13620736 15.11175989 18.92559097 17.40698871 21 20 C22.63356951 21.37368345 24.2925002 22.71937515 26 24 C25.67 24.66 25.34 25.32 25 26 C23.35 24.68 21.7 23.36 20 22 C20.66 23.32 21.32 24.64 22 26 C18.57041562 24.58214152 16.97606696 22.96809658 14.875 19.9375 C12.73756357 16.87531775 11.45334208 15.65634804 8.0625 14.125 C5.94366765 12.96927327 4.62180404 11.76924078 3 10 C2.34 9.34 1.68 8.68 1 8 C0.43479997 5.34462628 0.26211802 2.70855287 0 0 Z " fill="#48484B" transform="translate(352,338)"/>
<path d="M0 0 C3.42527887 1.47348708 5.64955058 3.40907846 8.25 6.0625 C8.95640625 6.77535156 9.6628125 7.48820312 10.390625 8.22265625 C12 10 12 10 12 11 C-1.86 11 -15.72 11 -30 11 C-25.42553017 7.56914762 -24.14210912 7.64116537 -18.609375 7.70703125 C-17.55245453 7.71339851 -17.55245453 7.71339851 -16.47418213 7.71989441 C-14.23239288 7.73663462 -11.99151569 7.77427596 -9.75 7.8125 C-8.22657552 7.82755296 -6.70313689 7.8412403 -5.1796875 7.85351562 C-1.45283059 7.88652209 2.27349563 7.93827146 6 8 C5.01 7.67 4.02 7.34 3 7 C2.3125 4.9375 2.3125 4.9375 2 3 C1.34 3 0.68 3 0 3 C0 2.01 0 1.02 0 0 Z " fill="#0E0E0E" transform="translate(409,397)"/>
<path d="M0 0 C3.54744007 0.02083271 7.09491081 0.02967186 10.64239502 0.03967285 C17.5448111 0.06082307 24.44710988 0.09474129 31.34942627 0.1373291 C30.68942627 1.4573291 30.02942627 2.7773291 29.34942627 4.1373291 C28.35942627 3.6423291 28.35942627 3.6423291 27.34942627 3.1373291 C24.90801067 3.04452992 22.49542568 3.01148982 20.05401611 3.02380371 C19.30269913 3.02365768 18.55138214 3.02351166 17.77729797 3.02336121 C15.28829077 3.02405914 12.79935794 3.03184597 10.31036377 3.03967285 C8.58686362 3.04153745 6.86336293 3.04296116 5.13986206 3.04396057 C0.5991673 3.04778242 -3.94149558 3.05760988 -8.48217773 3.06866455 C-13.11382618 3.07888581 -17.74547976 3.08345973 -22.37713623 3.08850098 C-31.46829609 3.09923243 -40.55943226 3.11630488 -49.65057373 3.1373291 C-49.65057373 2.8073291 -49.65057373 2.4773291 -49.65057373 2.1373291 C-33.11071018 -0.06088171 -16.64871963 -0.10846708 0 0 Z " fill="#999999" transform="translate(333.65057373046875,215.8626708984375)"/>
<path d="M0 0 C1.26085419 0.0001133 1.26085419 0.0001133 2.54718018 0.00022888 C3.89426056 0.00797081 3.89426056 0.00797081 5.26855469 0.01586914 C6.19512878 0.01728409 7.12170288 0.01869904 8.07635498 0.02015686 C11.03107961 0.02574715 13.98572802 0.03829789 16.94042969 0.05102539 C18.94563693 0.05604165 20.95084535 0.06060433 22.95605469 0.06469727 C27.86754232 0.07571341 32.77897309 0.09297139 37.69042969 0.11352539 C36.93475917 3.89983241 35.56445695 5.5176298 32.69042969 8.11352539 C32.03042969 7.78352539 31.37042969 7.45352539 30.69042969 7.11352539 C31.68042969 5.79352539 32.67042969 4.47352539 33.69042969 3.11352539 C19.50042969 3.11352539 5.31042969 3.11352539 -9.30957031 3.11352539 C-8.30957031 1.11352539 -8.30957031 1.11352539 -6.51641846 0.49562073 C-4.29308945 0.11067188 -2.25513426 -0.00679257 0 0 Z " fill="#ADADAD" transform="translate(385.3095703125,215.886474609375)"/>
<path d="M0 0 C3.91841827 1.30613942 6.32640809 2.83129848 9 6 C9 6.66 9 7.32 9 8 C6.03 7.67 3.06 7.34 0 7 C0 6.67 0 6.34 0 6 C-23.1 5.67 -46.2 5.34 -70 5 C-70 4.67 -70 4.34 -70 4 C-34.855 3.505 -34.855 3.505 1 3 C0.505 1.515 0.505 1.515 0 0 Z " fill="#1D1D1D" transform="translate(356,398)"/>
<path d="M0 0 C0.99 0.33 1.98 0.66 3 1 C2.80664062 1.6290625 2.61328125 2.258125 2.4140625 2.90625 C2.15367187 3.7621875 1.89328125 4.618125 1.625 5.5 C1.36976563 6.3353125 1.11453125 7.170625 0.8515625 8.03125 C-1.20094344 15.18677529 -2.35099439 21.56759777 -2.625 29 C-2.66367188 29.87011719 -2.70234375 30.74023438 -2.7421875 31.63671875 C-2.83540887 33.75750486 -2.91874136 35.87872185 -3 38 C-3.99 38 -4.98 38 -6 38 C-6 30.41 -6 22.82 -6 15 C-4.68 14.67 -3.36 14.34 -2 14 C-2.66 13.01 -3.32 12.02 -4 11 C-4.125 8.3125 -4.125 8.3125 -4 6 C-3.34 5.67 -2.68 5.34 -2 5 C-1.27840576 3.35636866 -0.60648579 1.68949614 0 0 Z " fill="#555555" transform="translate(238,282)"/>
<path d="M0 0 C1.98 0 3.96 0 6 0 C0.72898586 6.41069287 -5.09128152 12.18590512 -11 18 C-11.66 17.67 -12.32 17.34 -13 17 C-13.375 14.8125 -13.375 14.8125 -13 12 C-10.1875 9.375 -10.1875 9.375 -7 7 C-6.4225 6.4225 -5.845 5.845 -5.25 5.25 C-3.68630449 3.68630449 -1.97010432 2.98505216 0 2 C0 1.34 0 0.68 0 0 Z " fill="#4F4F50" transform="translate(341,293)"/>
<path d="M0 0 C3.9335883 3.27799025 7.75103543 6.6324602 11.4375 10.1875 C12.45650391 11.16783203 12.45650391 11.16783203 13.49609375 12.16796875 C15 14 15 14 15 17 C0.31156385 17.17079577 -14.32667837 16.641084 -29 16 C-29 15.67 -29 15.34 -29 15 C-15.47 14.67 -1.94 14.34 12 14 C8.04 10.04 4.08 6.08 0 2 C0 1.34 0 0.68 0 0 Z " fill="#A6A6A6" transform="translate(408,393)"/>
<path d="M0 0 C2.97 0.495 2.97 0.495 6 1 C6.268125 2.0725 6.53625 3.145 6.8125 4.25 C7.73636209 7.90427861 7.73636209 7.90427861 9.625 10.125 C11.38708178 12.5278388 11.24251673 14.08979925 11 17 C6.08064098 12.88380164 1.47352044 8.59589638 -3 4 C-2.34 3.67 -1.68 3.34 -1 3 C-0.67 2.01 -0.34 1.02 0 0 Z " fill="#2B2B2D" transform="translate(322,346)"/>
<path d="M0 0 C1.32 0.33 2.64 0.66 4 1 C-0.50301764 6.45102135 -5.38708591 11.49689815 -10.375 16.5 C-11.32173584 17.45350342 -11.32173584 17.45350342 -12.28759766 18.42626953 C-12.8810498 19.01778809 -13.47450195 19.60930664 -14.0859375 20.21875 C-14.8910376 21.0221582 -14.8910376 21.0221582 -15.71240234 21.84179688 C-17 23 -17 23 -18 23 C-18.375 20.8125 -18.375 20.8125 -18 18 C-16.17130326 15.91167347 -14.30947441 14.61663209 -12 13 C-11.34 13 -10.68 13 -10 13 C-10 12.01 -10 11.02 -10 10 C-6.66666667 7 -6.66666667 7 -4 7 C-4 6.34 -4 5.68 -4 5 C-3.34 5 -2.68 5 -2 5 C-2 4.01 -2 3.02 -2 2 C-1.34 2 -0.68 2 0 2 C0 1.34 0 0.68 0 0 Z " fill="#323232" transform="translate(413,222)"/>
<path d="M0 0 C0.33 0.66 0.66 1.32 1 2 C1.87398438 2.41378906 1.87398438 2.41378906 2.765625 2.8359375 C5.6366682 4.33169077 7.49883311 6.30762232 9.75 8.625 C10.54921875 9.44226563 11.3484375 10.25953125 12.171875 11.1015625 C13.07679688 12.04128906 13.07679688 12.04128906 14 13 C11 14 11 14 8 13 C7.67 12.01 7.34 11.02 7 10 C5.02 10.66 3.04 11.32 1 12 C-1.44576827 8.33134759 -1.23607254 6.32799657 -1 2 C-0.67 1.34 -0.34 0.68 0 0 Z " fill="#3D3D3F" transform="translate(329,315)"/>
<path d="M0 0 C0 3.15084005 -0.45473667 4.33871316 -2 7 C-2.66 7.66 -3.32 8.32 -4 9 C-4.69937532 10.31647119 -5.36729133 11.65022151 -6 13 C-6.33 13.66 -6.66 14.32 -7 15 C-7.66 15 -8.32 15 -9 15 C-9.28875 15.639375 -9.5775 16.27875 -9.875 16.9375 C-11 19 -11 19 -13 20 C-13 19.34 -13 18.68 -13 18 C-13.66 18 -14.32 18 -15 18 C-14.41889329 14.57245533 -13.31446376 12.95461339 -10.83984375 10.546875 C-10.21142578 9.928125 -9.58300781 9.309375 -8.93554688 8.671875 C-8.27619141 8.03765625 -7.61683594 7.4034375 -6.9375 6.75 C-6.27427734 6.1003125 -5.61105469 5.450625 -4.92773438 4.78125 C-3.29170683 3.1805324 -1.64909088 1.58723807 0 0 Z " fill="#404040" transform="translate(367,227)"/>
<path d="M0 0 C0.66 0.33 1.32 0.66 2 1 C2 1.99 2 2.98 2 4 C-0.97 4.99 -3.94 5.98 -7 7 C-7.33 8.65 -7.66 10.3 -8 12 C-9.32 12.33 -10.64 12.66 -12 13 C-12 13.66 -12 14.32 -12 15 C-14.31 15.33 -16.62 15.66 -19 16 C-19 15.34 -19 14.68 -19 14 C-16.80790789 12.10453741 -14.60936994 10.32243931 -12.3125 8.5625 C-11.68666016 8.07201172 -11.06082031 7.58152344 -10.41601562 7.07617188 C-3.68131005 1.85060451 -3.68131005 1.85060451 0 0 Z " fill="#555555" transform="translate(247,232)"/>
<path d="M0 0 C13.35524023 -0.59482706 24.61357299 -0.40218 37 5 C36.34 6.32 35.68 7.64 35 9 C32.36 8.01 29.72 7.02 27 6 C27 5.34 27 4.68 27 4 C26.01 4 25.02 4 24 4 C24 3.34 24 2.68 24 2 C16.08 1.67 8.16 1.34 0 1 C0 0.67 0 0.34 0 0 Z " fill="#6A6A6A" transform="translate(293,373)"/>
<path d="M0 0 C0.66 0.99 1.32 1.98 2 3 C0.02 3.99 0.02 3.99 -2 5 C-1 8.23570226 -1 8.23570226 1 12 C-5.435 12.495 -5.435 12.495 -12 13 C-8.17420552 8.44548277 -4.25602708 4.15469311 0 0 Z " fill="#4C4C4E" transform="translate(327,267)"/>
<path d="M0 0 C0.99 0.99 1.98 1.98 3 3 C-2.4529148 10.48071749 -2.4529148 10.48071749 -6.24609375 11.75390625 C-8.4375 12 -8.4375 12 -12 12 C-10.98502564 8.95507691 -10.4178943 7.9701361 -8 6 C-5.8125 5.3125 -5.8125 5.3125 -4 5 C-4 4.01 -4 3.02 -4 2 C-2.68 1.34 -1.36 0.68 0 0 Z " fill="#3F3F41" transform="translate(365,270)"/>
<path d="M0 0 C4.2270408 2.59386595 6.98029936 5.10361207 10 9 C11.63356951 10.37368345 13.2925002 11.71937515 15 13 C14.67 13.66 14.34 14.32 14 15 C12.35 13.68 10.7 12.36 9 11 C9.66 12.32 10.32 13.64 11 15 C7.57041562 13.58214152 5.97606696 11.96809658 3.875 8.9375 C1.88925353 5.95372478 1.88925353 5.95372478 -1 4 C-1.33 3.34 -1.66 2.68 -2 2 C-1.34 2 -0.68 2 0 2 C0 1.34 0 0.68 0 0 Z " fill="#484849" transform="translate(363,349)"/>
<path d="M0 0 C2.375 0.25 2.375 0.25 5 1 C6.71202908 3.48244217 7.37215066 6.07003641 8 9 C9.32 9 10.64 9 12 9 C12.33 9.99 12.66 10.98 13 12 C13.66 11.34 14.32 10.68 15 10 C15 11.98 15 13.96 15 16 C10.99060757 14.38669686 8.24326219 11.57540302 5.25 8.5625 C4.74339844 8.07201172 4.23679687 7.58152344 3.71484375 7.07617188 C2.4140692 5.77715039 1.20011632 4.39254877 0 3 C0 2.01 0 1.02 0 0 Z " fill="#404040" transform="translate(296,325)"/>
<path d="M0 0 C-0.639375 0.103125 -1.27875 0.20625 -1.9375 0.3125 C-2.618125 0.539375 -3.29875 0.76625 -4 1 C-4.33 1.99 -4.66 2.98 -5 4 C-7.5625 5.1875 -7.5625 5.1875 -10 6 C-10 5.34 -10 4.68 -10 4 C-14.22104999 6.72190685 -14.22104999 6.72190685 -18 10 C-20.625 9.625 -20.625 9.625 -23 9 C-19.05674007 5.50587585 -15.21296792 3.57260664 -10.375 1.6875 C-9.37339844 1.27274414 -9.37339844 1.27274414 -8.3515625 0.84960938 C-3.37648691 -1.12549564 -3.37648691 -1.12549564 0 0 Z " fill="#7B7B7B" transform="translate(272,223)"/>
<path d="M0 0 C1.88486293 2.8272944 3.76668624 5.655174 5.625 8.5 C6.25664062 9.4590625 6.88828125 10.418125 7.5390625 11.40625 C9 14 9 14 9 17 C8.34 16.34 7.68 15.68 7 15 C6.34 15.66 5.68 16.32 5 17 C2 12.25 2 12.25 2 10 C1.34 9.67 0.68 9.34 0 9 C0 6.03 0 3.06 0 0 Z " fill="#6B6B6B" transform="translate(239,334)"/>
<path d="M0 0 C0.94314127 3.41610225 1.08065117 6.45134864 1 10 C0.34 10 -0.32 10 -1 10 C-0.67 11.65 -0.34 13.3 0 15 C-1.98 16.65 -3.96 18.3 -6 20 C-4.85210257 12.90116066 -2.88549626 6.58341381 0 0 Z " fill="#595959" transform="translate(211,270)"/>
<path d="M0 0 C0.99 0.33 1.98 0.66 3 1 C2.34 1.66 1.68 2.32 1 3 C0.67 2.01 0.34 1.02 0 0 Z M-2 2 C-1.34 2.99 -0.68 3.98 0 5 C-3.3 8.63 -6.6 12.26 -10 16 C-10.66 15.01 -11.32 14.02 -12 13 C-11.34 12.34 -10.68 11.68 -10 11 C-9.67 11 -9.34 11 -9 11 C-8.6596875 10.1646875 -8.6596875 10.1646875 -8.3125 9.3125 C-6.64103234 6.36753316 -4.44723648 4.31843456 -2 2 Z " fill="#050505" transform="translate(373,223)"/>
<path d="M0 0 C0.66 0 1.32 0 2 0 C2 0.66 2 1.32 2 2 C2.66 2.33 3.32 2.66 4 3 C2.25048432 3.95921722 0.50036756 4.91733817 -1.25 5.875 C-2.71179688 6.67550781 -2.71179688 6.67550781 -4.203125 7.4921875 C-6.45130408 8.70419466 -8.7072805 9.87547567 -11 11 C-11 9.35 -11 7.7 -11 6 C-10.45730469 5.81824219 -9.91460937 5.63648438 -9.35546875 5.44921875 C-8.28232422 5.07216797 -8.28232422 5.07216797 -7.1875 4.6875 C-6.47980469 4.44386719 -5.77210938 4.20023437 -5.04296875 3.94921875 C-2.85109073 2.93081271 -1.67201868 1.71034576 0 0 Z " fill="#525252" transform="translate(268,253)"/>
<path d="M0 0 C0.99 0.33 1.98 0.66 3 1 C2.80664062 1.6290625 2.61328125 2.258125 2.4140625 2.90625 C0.7907875 8.24216385 -0.69460565 13.57759268 -2 19 C-2.33 19 -2.66 19 -3 19 C-3 16.36 -3 13.72 -3 11 C-3.33 11 -3.66 11 -4 11 C-4 9.35 -4 7.7 -4 6 C-3.34 5.67 -2.68 5.34 -2 5 C-1.27840576 3.35636866 -0.60648579 1.68949614 0 0 Z " fill="#656565" transform="translate(238,282)"/>
<path d="M0 0 C0.99 0.33 1.98 0.66 3 1 C2.34 1 1.68 1 1 1 C1 1.66 1 2.32 1 3 C-0.65 3.66 -2.3 4.32 -4 5 C-2.68 3.35 -1.36 1.7 0 0 Z M-9 4 C-7.02 4.66 -5.04 5.32 -3 6 C-3.33 7.32 -3.66 8.64 -4 10 C-6.97 9.505 -6.97 9.505 -10 9 C-10.33 8.01 -10.66 7.02 -11 6 C-10.34 5.34 -9.68 4.68 -9 4 Z " fill="#090909" transform="translate(258,228)"/>
<path d="M0 0 C1.1055189 0.93590504 2.20935453 1.87379858 3.3125 2.8125 C3.92738281 3.33457031 4.54226562 3.85664063 5.17578125 4.39453125 C6.85424679 5.87172469 8.43882034 7.40039131 10 9 C3.375 8.25 3.375 8.25 0 6 C-0.33 6.99 -0.66 7.98 -1 9 C-1.125 2.25 -1.125 2.25 0 0 Z " fill="#383838" transform="translate(249,351)"/>
<path d="M0 0 C3.91841827 1.30613942 6.32640809 2.83129848 9 6 C9 6.66 9 7.32 9 8 C-0.59453303 7.40546697 -0.59453303 7.40546697 -4 4 C-2.35 3.67 -0.7 3.34 1 3 C0.67 2.01 0.34 1.02 0 0 Z " fill="#6D6D6D" transform="translate(356,398)"/>
<path d="M0 0 C3.77727089 1.81309003 7.37269822 3.9073259 11 6 C10.34 6.66 9.68 7.32 9 8 C5.55834679 7.64700993 3.93127462 6.95418308 1 5 C0.3125 2.375 0.3125 2.375 0 0 Z " fill="#555555" transform="translate(259,360)"/>
<path d="M0 0 C4.22271781 2.53363068 6.78310162 4.56620325 9 9 C7.68 9.33 6.36 9.66 5 10 C4.67 9.01 4.34 8.02 4 7 C1.99983534 5.79117904 1.99983534 5.79117904 0 5 C0 3.35 0 1.7 0 0 Z " fill="#6A696C" transform="translate(343,329)"/>
<path d="M0 0 C0.66 0.99 1.32 1.98 2 3 C4.05003955 4.19232613 4.05003955 4.19232613 6 5 C5 7 5 7 4 8 C1.99279077 7.71325582 -0.0085944 7.38133299 -2 7 C-2.125 4.625 -2.125 4.625 -2 2 C-1.34 1.34 -0.68 0.68 0 0 Z " fill="#101010" transform="translate(287,309)"/>
<path d="M0 0 C2 2 2 2 2 5 C-0.76223278 7.76223278 -3.20706617 7.57856291 -7 8 C-6.02133662 6.85373678 -5.04205413 5.70800212 -4.0625 4.5625 C-3.51722656 3.92441406 -2.97195313 3.28632813 -2.41015625 2.62890625 C-1.63204305 1.73008851 -0.84063472 0.84063472 0 0 Z " fill="#515152" transform="translate(309,285)"/>
<path d="M0 0 C0.99 0 1.98 0 3 0 C3 0.99 3 1.98 3 3 C2.34 3 1.68 3 1 3 C1 3.66 1 4.32 1 5 C1.66 5.33 2.32 5.66 3 6 C2.01 7.485 2.01 7.485 1 9 C-0.98 6.69 -2.96 4.38 -5 2 C-3.68 2 -2.36 2 -1 2 C-0.67 1.34 -0.34 0.68 0 0 Z " fill="#3C3C3D" transform="translate(340,363)"/>
<path d="M0 0 C0.66 0 1.32 0 2 0 C4.21538462 6.4 4.21538462 6.4 3.125 9.4375 C2.75375 9.953125 2.3825 10.46875 2 11 C-1.07692308 5.70769231 -1.07692308 5.70769231 -0.6875 2.125 C-0.460625 1.42375 -0.23375 0.7225 0 0 Z " fill="#4A4A4A" transform="translate(212,349)"/>
<path d="M0 0 C3.93846154 3.32307692 3.93846154 3.32307692 4.25 6.75 C4.1675 7.4925 4.085 8.235 4 9 C1.69 7.02 -0.62 5.04 -3 3 C-2.01 2.01 -1.02 1.02 0 0 Z " fill="#3D3D3D" transform="translate(329,354)"/>
<path d="M0 0 C0 3.83764027 -1.26535335 5.11486085 -3.5 8.1875 C-4.1496875 9.08855469 -4.799375 9.98960937 -5.46875 10.91796875 C-5.9740625 11.60503906 -6.479375 12.29210937 -7 13 C-8.33332095 10.3333581 -7.67102033 8.83319697 -7 6 C-6.01 6 -5.02 6 -4 6 C-4 4.68 -4 3.36 -4 2 C-2.68 1.34 -1.36 0.68 0 0 Z " fill="#808080" transform="translate(249,270)"/>
<path d="M0 0 C3.8063457 0.67170806 7.35206816 1.72746564 11 3 C9.35 4.32 7.7 5.64 6 7 C4 5.625 4 5.625 2 4 C2 3.34 2 2.68 2 2 C1.34 1.34 0.68 0.68 0 0 Z " fill="#616161" transform="translate(270,367)"/>
<path d="M0 0 C1 2 1 2 0.0625 5.125 C-0.288125 6.07375 -0.63875 7.0225 -1 8 C-2.98 8 -4.96 8 -7 8 C-6.02133662 6.85373678 -5.04205413 5.70800212 -4.0625 4.5625 C-3.51722656 3.92441406 -2.97195313 3.28632813 -2.41015625 2.62890625 C-1.63204305 1.73008851 -0.84063472 0.84063472 0 0 Z " fill="#555555" transform="translate(346,248)"/>
<path d="M0 0 C-2.93828597 2.50298434 -5.17902761 3.46930939 -9 4 C-9 2.68 -9 1.36 -9 0 C-5.52176885 -1.15941038 -3.54104422 -0.70820884 0 0 Z " fill="#383838" transform="translate(332,242)"/>
<path d="M0 0 C0.66 0.66 1.32 1.32 2 2 C1.67 2.99 1.34 3.98 1 5 C0.34 5 -0.32 5 -1 5 C-1.33 5.99 -1.66 6.98 -2 8 C-5 8 -5 8 -7 7 C-4.69 4.69 -2.38 2.38 0 0 Z " fill="#525252" transform="translate(375,219)"/>
<path d="M0 0 C3 1 3 1 4.6875 4.0625 C5.120625 5.031875 5.55375 6.00125 6 7 C5.01 7.495 5.01 7.495 4 8 C2 6.8125 2 6.8125 0 5 C-0.25 2.3125 -0.25 2.3125 0 0 Z " fill="#3B3B3B" transform="translate(404,390)"/>
<path d="M0 0 C3.93846154 3.32307692 3.93846154 3.32307692 4.25 6.75 C4.1675 7.4925 4.085 8.235 4 9 C1.69 7.02 -0.62 5.04 -3 3 C-2.01 2.67 -1.02 2.34 0 2 C0 1.34 0 0.68 0 0 Z " fill="#404040" transform="translate(354,379)"/>
<path d="M0 0 C1.32 0 2.64 0 4 0 C4.33 0.99 4.66 1.98 5 3 C5.66 2.34 6.32 1.68 7 1 C7 2.98 7 4.96 7 7 C4.13302508 5.71480435 2.02392288 4.42870746 0 2 C0 1.34 0 0.68 0 0 Z " fill="#575758" transform="translate(304,334)"/>
<path d="M0 0 C1.14926266 0.95421808 2.29430541 1.91352045 3.4375 2.875 C4.07558594 3.40867187 4.71367187 3.94234375 5.37109375 4.4921875 C7 6 7 6 8 8 C5.03 7.505 5.03 7.505 2 7 C1.67 6.01 1.34 5.02 1 4 C0.34 3.67 -0.32 3.34 -1 3 C-0.67 2.01 -0.34 1.02 0 0 Z " fill="#737375" transform="translate(335,321)"/>
<path d="M0 0 C0.66 0.33 1.32 0.66 2 1 C2 1.99 2 2.98 2 4 C0.56445975 4.50559908 -0.8735202 5.0042749 -2.3125 5.5 C-3.51326172 5.91765625 -3.51326172 5.91765625 -4.73828125 6.34375 C-7 7 -7 7 -10 7 C-6.7 4.69 -3.4 2.38 0 0 Z " fill="#878787" transform="translate(247,232)"/>
<path d="M0 0 C3 1.8125 3 1.8125 6 4 C6 4.99 6 5.98 6 7 C4.35 5.68 2.7 4.36 1 3 C1.66 4.32 2.32 5.64 3 7 C1.0625 6.1875 1.0625 6.1875 -1 5 C-1.33 4.01 -1.66 3.02 -2 2 C-1.34 2 -0.68 2 0 2 C0 1.34 0 0.68 0 0 Z " fill="#707070" transform="translate(371,357)"/>
<path d="M0 0 C0.33 0 0.66 0 1 0 C1.33 1.98 1.66 3.96 2 6 C0.02 6.99 0.02 6.99 -2 8 C-2.99 6.68 -3.98 5.36 -5 4 C-4.01 4 -3.02 4 -2 4 C-1.34 2.68 -0.68 1.36 0 0 Z " fill="#323233" transform="translate(327,348)"/>
<path d="M0 0 C0.99 0.33 1.98 0.66 3 1 C2.278125 1.70125 1.55625 2.4025 0.8125 3.125 C-1.99823813 5.92770745 -4.49516226 8.92262792 -7 12 C-7 8.19654123 -5.86213669 7.22298985 -3.5 4.3125 C-2.8503125 3.50425781 -2.200625 2.69601563 -1.53125 1.86328125 C-1.0259375 1.24839844 -0.520625 0.63351563 0 0 Z " fill="#9E9E9E" transform="translate(226,248)"/>
<path d="M0 0 C1.04005702 3.38018531 1.08004482 6.4780279 1 10 C-0.32 10 -1.64 10 -3 10 C-2.49287967 6.28111761 -1.88391785 3.26545761 0 0 Z " fill="#777777" transform="translate(211,270)"/>
<path d="M0 0 C0.78375 0.04125 1.5675 0.0825 2.375 0.125 C-2.25 5 -2.25 5 -5.625 6.125 C-4.86443086 2.32215429 -4.27658992 0.20364714 0 0 Z " fill="#444444" transform="translate(358.625,219.875)"/>
<path d="M0 0 C2.97 0.495 2.97 0.495 6 1 C6.33 2.98 6.66 4.96 7 7 C5.83040013 6.02433888 4.66438823 5.044375 3.5 4.0625 C2.8503125 3.51722656 2.200625 2.97195313 1.53125 2.41015625 C1.0259375 1.94480469 0.520625 1.47945313 0 1 C0 0.67 0 0.34 0 0 Z " fill="#4B4B4B" transform="translate(285,316)"/>
<path d="M0 0 C1.98 0 3.96 0 6 0 C4.35830472 2.02054804 2.69088222 4.02043058 1 6 C0.67 6 0.34 6 0 6 C0 4.02 0 2.04 0 0 Z " fill="#525254" transform="translate(341,293)"/>
<path d="M0 0 C-0.25 1.875 -0.25 1.875 -1 4 C-3.0625 5.25 -3.0625 5.25 -5 6 C-5 4.35 -5 2.7 -5 1 C-3 0 -3 0 0 0 Z " fill="#3E3E3E" transform="translate(262,258)"/>
<path d="M0 0 C-0.639375 0.103125 -1.27875 0.20625 -1.9375 0.3125 C-2.9584375 0.6528125 -2.9584375 0.6528125 -4 1 C-4.33 1.99 -4.66 2.98 -5 4 C-7.5625 5.1875 -7.5625 5.1875 -10 6 C-10 5.01 -10 4.02 -10 3 C-8.68 2.67 -7.36 2.34 -6 2 C-6 1.34 -6 0.68 -6 0 C-3 -1 -3 -1 0 0 Z " fill="#4A4A4A" transform="translate(272,223)"/>
<path d="M0 0 C2.62187494 1.04874998 3.79371361 1.64931313 5.25 4.125 C5.4975 4.74375 5.745 5.3625 6 6 C3.625 5.75 3.625 5.75 1 5 C-0.3125 2.9375 -0.3125 2.9375 -1 1 C-0.67 0.67 -0.34 0.34 0 0 Z " fill="#5F5F61" transform="translate(357,343)"/>
<path d="M0 0 C0.66 0.33 1.32 0.66 2 1 C2.4140625 3.06640625 2.4140625 3.06640625 2.625 5.5625 C2.69976562 6.38878906 2.77453125 7.21507812 2.8515625 8.06640625 C2.92503906 9.02353516 2.92503906 9.02353516 3 10 C2.34 10 1.68 10 1 10 C0.63720544 8.71073008 0.28503302 7.41846728 -0.0625 6.125 C-0.35833984 5.04605469 -0.35833984 5.04605469 -0.66015625 3.9453125 C-1 2 -1 2 0 0 Z " fill="#262626" transform="translate(237,333)"/>
<path d="M0 0 C1.32 0 2.64 0 4 0 C4 1.32 4 2.64 4 4 C3.01 4 2.02 4 1 4 C0.67 4.99 0.34 5.98 0 7 C-0.93423645 3.98968256 -1.04449911 3.13349732 0 0 Z " fill="#242424" transform="translate(241,272)"/>
<path d="M0 0 C2.31 0.33 4.62 0.66 7 1 C7.33 2.65 7.66 4.3 8 6 C4.63408134 4.55746343 2.48952921 2.66735273 0 0 Z " fill="#5C5C5C" transform="translate(232,380)"/>
<path d="M0 0 C0.33 0.99 0.66 1.98 1 3 C0.34 3.66 -0.32 4.32 -1 5 C-1.69748583 6.31747324 -2.36959957 7.64914193 -3 9 C-3.75 6.75 -3.75 6.75 -4 4 C-2.0625 1.6875 -2.0625 1.6875 0 0 Z " fill="#414141" transform="translate(332,302)"/>
<path d="M0 0 C0.99 0.33 1.98 0.66 3 1 C1.68 2.65 0.36 4.3 -1 6 C-1.66 5.67 -2.32 5.34 -3 5 C-3 4.01 -3 3.02 -3 2 C-2.01 1.34 -1.02 0.68 0 0 Z " fill="#363636" transform="translate(341,232)"/>
<path d="M0 0 C-0.33 0.99 -0.66 1.98 -1 3 C-3.31 2.34 -5.62 1.68 -8 1 C-8 0.67 -8 0.34 -8 0 C-4.71303767 -0.79953138 -3.28976808 -1.09658936 0 0 Z " fill="#3D3D3D" transform="translate(263,395)"/>
<path d="M0 0 C1.65 0 3.3 0 5 0 C5.66 1.32 6.32 2.64 7 4 C6.34 4.66 5.68 5.32 5 6 C3.35 4.02 1.7 2.04 0 0 Z " fill="#434343" transform="translate(226,374)"/>
<path d="M0 0 C2.31 0.66 4.62 1.32 7 2 C6.01 2.495 6.01 2.495 5 3 C5.33 4.32 5.66 5.64 6 7 C1.125 2.25 1.125 2.25 0 0 Z " fill="#4D4D4D" transform="translate(220,367)"/>
<path d="M0 0 C0.66 0 1.32 0 2 0 C2 1.32 2 2.64 2 4 C0.1875 5.0625 0.1875 5.0625 -2 6 C-2.99 5.67 -3.98 5.34 -5 5 C-3.36587557 3.29159719 -2.13093906 2.06546953 0 1 C0 0.67 0 0.34 0 0 Z " fill="#3C3C3E" transform="translate(339,295)"/>
<path d="M0 0 C0.99 0.66 1.98 1.32 3 2 C1.37660195 3.70884005 -0.29319053 5.37446717 -2 7 C-2.66 7 -3.32 7 -4 7 C-2.79618552 4.50638429 -1.54571278 2.31856917 0 0 Z " fill="#101010" transform="translate(368,227)"/>
<path d="M0 0 C3.26460973 1.80412643 4.88929795 2.83394693 7 6 C4.0625 5.25 4.0625 5.25 1 4 C0.125 1.875 0.125 1.875 0 0 Z " fill="#151515" transform="translate(366,393)"/>
<path d="M0 0 C2.31 0.33 4.62 0.66 7 1 C7.33 2.32 7.66 3.64 8 5 C2.25 3.375 2.25 3.375 0 0 Z " fill="#5B5B5B" transform="translate(240,386)"/>
<path d="M0 0 C2.97 1.98 2.97 1.98 6 4 C3.39417629 4.93065133 2.35801776 5.14917407 -0.25 4.0625 C-0.8275 3.711875 -1.405 3.36125 -2 3 C-1.34 2.67 -0.68 2.34 0 2 C0 1.34 0 0.68 0 0 Z " fill="#5F5F5F" transform="translate(253,355)"/>
<path d="M0 0 C2.375 0.25 2.375 0.25 5 1 C6.3125 3.0625 6.3125 3.0625 7 5 C6.01 4.34 5.02 3.68 4 3 C3.34 3.66 2.68 4.32 2 5 C1.34 3.35 0.68 1.7 0 0 Z " fill="#565656" transform="translate(242,346)"/>
<path d="M0 0 C1.65 0 3.3 0 5 0 C5.625 1.875 5.625 1.875 6 4 C5.34 4.66 4.68 5.32 4 6 C3.896875 5.360625 3.79375 4.72125 3.6875 4.0625 C3.460625 3.381875 3.23375 2.70125 3 2 C2.01 1.67 1.02 1.34 0 1 C0 0.67 0 0.34 0 0 Z " fill="#272627" transform="translate(314,343)"/>
<path d="M0 0 C0.33 0.66 0.66 1.32 1 2 C1.66 2.33 2.32 2.66 3 3 C5 4 5 4 6 6 C3.03 5.505 3.03 5.505 0 5 C0 3.35 0 1.7 0 0 Z " fill="#6B6B6B" transform="translate(329,315)"/>
</svg>
