<svg version="1.1" id="Layer_1" xmlns="http://www.w3.org/2000/svg" xmlns:xlink="http://www.w3.org/1999/xlink" x="0px" y="0px"
	 width="100%" viewBox="0 0 624 624" enable-background="new 0 0 624 624" xml:space="preserve">
<path fill="#000000" opacity="1.000000" stroke="none" 
	d="
M254.970764,267.963989 
	C236.256866,286.056946 230.761917,311.447968 240.211884,335.170288 
	C249.290192,357.959595 272.750214,373.806305 298.865326,373.711884 
	C314.172455,373.656555 328.283997,376.297272 340.687897,385.739624 
	C348.105011,391.385895 355.640259,396.876892 363.097229,402.471222 
	C363.970367,403.126282 365.218353,403.603638 365.032227,405.192963 
	C363.788452,406.730072 362.003601,406.052216 360.446747,406.054871 
	C338.626221,406.092224 316.805573,406.078552 294.984985,406.077789 
	C257.256348,406.076508 204.906036,377.436523 203.766968,316.177643 
	C203.432114,298.170074 206.558182,281.034637 215.904175,265.406738 
	C228.569199,244.228851 247.613358,231.257019 270.586029,223.530319 
	C281.543488,219.844879 292.844818,217.833038 304.423157,217.779205 
	C323.411621,217.690903 342.400696,217.737198 361.389526,217.752945 
	C362.517578,217.753891 363.645447,217.986786 364.648438,218.097885 
	C365.408844,219.875290 364.157166,220.384125 363.275970,221.072021 
	C356.059052,226.705872 348.802338,232.289429 341.624481,237.972595 
	C330.174042,247.038681 317.040070,251.175461 302.589813,250.873657 
	C284.600250,250.497925 268.948364,256.287994 254.970764,267.963989 
z"/>
<path fill="#000000" opacity="1.000000" stroke="none" 
	d="
M373.849365,359.150299 
	C390.531647,375.875092 406.960297,392.353546 423.361725,408.804657 
	C421.979340,411.034241 420.132080,410.225739 418.625397,410.236237 
	C408.300140,410.307953 397.960724,409.953461 387.653778,410.392365 
	C382.127838,410.627625 378.240784,408.716156 374.477814,404.944244 
	C358.836914,389.265869 343.020477,373.762329 327.241302,358.222198 
	C314.312988,345.489746 301.343140,332.799438 288.398132,320.083893 
	C283.469666,315.242798 283.477234,312.979980 288.404846,308.051300 
	C317.366455,279.083130 346.334076,250.120956 375.279694,221.136780 
	C377.078979,219.335083 378.809296,217.707748 381.636902,217.721634 
	C394.793213,217.786224 407.950012,217.751373 421.106506,217.785355 
	C421.711731,217.786911 422.316101,218.109039 422.893768,218.274124 
	C423.296692,220.580612 421.474243,221.328812 420.390381,222.413925 
	C391.792023,251.045227 363.159149,279.642029 334.535675,308.248230 
	C328.949493,313.831024 328.938416,314.668671 334.556641,320.241913 
	C347.558899,333.140106 360.581421,346.017914 373.849365,359.150299 
z"/>
</svg>